<?xml version="1.0" encoding="iso-8859-1"?>
<!-- Generator: Adobe Illustrator 19.0.0, SVG Export Plug-In . SVG Version: 6.00 Build 0)  -->
<svg version="1.1" id="Capa_1" xmlns="http://www.w3.org/2000/svg" xmlns:xlink="http://www.w3.org/1999/xlink" x="0px" y="0px"
	 viewBox="0 0 455.111 455.111" style="enable-background:new 0 0 455.111 455.111;" xml:space="preserve">
<path style="fill:#E9EFF4;" d="M400.356,29.867v395.378c0,17.067-12.8,29.867-29.867,29.867H84.622
	c-17.067,0-29.867-12.8-29.867-29.867V29.867C54.756,12.8,68.978,0,84.622,0h285.867C387.556,0,400.356,12.8,400.356,29.867z"/>
<g>
	<path style="fill:#E24C4B;" d="M309.333,234.667l-71.111,89.6c-4.267,5.689-14.222,5.689-18.489,0l-71.111-89.6
		c-2.844-4.267-2.844-9.956,0-14.222l71.111-89.6c4.267-5.689,14.222-5.689,18.489,0l71.111,89.6
		C312.178,224.711,312.178,230.4,309.333,234.667z"/>
	<path style="fill:#E24C4B;" d="M145.778,79.644l-22.756,29.867c-1.422,1.422-4.267,1.422-5.689,0L93.156,79.644
		c-1.422-1.422-1.422-2.844,0-4.267l22.756-29.867c1.422-1.422,4.267-1.422,5.689,0l22.756,29.867
		C147.2,76.8,147.2,78.222,145.778,79.644z"/>
	<path style="fill:#E24C4B;" d="M363.378,379.733L340.622,409.6c-1.422,1.422-4.267,1.422-5.689,0l-22.756-29.867
		c-1.422-1.422-1.422-2.844,0-4.267l22.756-29.867c1.422-1.422,4.267-1.422,5.689,0l22.756,29.867
		C364.8,376.889,364.8,378.311,363.378,379.733z"/>
</g>
<g>
</g>
<g>
</g>
<g>
</g>
<g>
</g>
<g>
</g>
<g>
</g>
<g>
</g>
<g>
</g>
<g>
</g>
<g>
</g>
<g>
</g>
<g>
</g>
<g>
</g>
<g>
</g>
<g>
</g>
</svg>
