<?xml version="1.0" encoding="iso-8859-1"?>
<!-- Generator: Adobe Illustrator 19.0.0, SVG Export Plug-In . SVG Version: 6.00 Build 0)  -->
<svg version="1.1" id="Capa_1" xmlns="http://www.w3.org/2000/svg" xmlns:xlink="http://www.w3.org/1999/xlink" x="0px" y="0px"
	 viewBox="0 0 512 512" style="enable-background:new 0 0 512 512;" xml:space="preserve">
<path style="fill:#5EAC24;" d="M509.592,60.504c-13.655,6.052-48.294,22.053-68.714,37.037c-2.356,1.728-0.995,5.466,1.916,5.288
	c15.1-0.942,43.32,1.152,54.211,27.728c0.89,2.168-1.058,4.429-3.34,3.937c-17.613-3.833-75.949-15.142-102.432-3.393
	c-2.66,1.183-2.126,5.121,0.754,5.581c12.587,2.011,35.875,8.314,40.598,27.54c0.544,2.22-1.581,4.189-3.749,3.487
	c-13.246-4.241-52.378-14.995-74.169-1.55c-0.848,0.524-1.665,1.079-2.45,1.675c-0.178,0.147-0.346,0.304-0.492,0.482
	l-22.995,27.205c-1.047,1.236-2.901,1.393-4.136,0.346l-19.11-16.147c-1.236-1.047-1.393-2.901-0.346-4.136l23.1-27.341
	c0.084-0.084,0.147-0.178,0.209-0.272c0.649-0.984,1.361-2.084,2.105-3.298c8.157-13.351,20.158-39.917,4.764-63.069
	c-1.382-2.084,0.335-4.817,2.817-4.513c5.885,0.712,14.733,3.183,21.686,11.089c1.864,2.115,5.351,0.67,5.131-2.147
	c-1.33-16.901-5.487-48.849-18.189-65.677c-1.55-2.063,0.063-4.984,2.628-4.702c11.194,1.246,32.43,6.503,42.326,28.158
	c0.921,2.031,3.728,2.272,5.026,0.45l30.901-43.027c1.833-2.555,5.854-0.827,5.267,2.262l-11.058,57.687
	c-0.45,2.335,1.927,4.21,4.094,3.225c13.99-6.398,53.436-21.896,83.552-9.32C511.885,56.096,511.948,59.446,509.592,60.504z"/>
<path style="fill:#47821C;" d="M354.667,166.161c-0.848,0.524-1.665,1.079-2.45,1.675c-0.178,0.147-0.346,0.304-0.492,0.482
	l-22.995,27.205c-1.047,1.236-2.901,1.393-4.136,0.346l-19.11-16.147c-1.236-1.047-1.393-2.901-0.346-4.136l23.1-27.341
	c0.084-0.084,0.147-0.178,0.209-0.272c0.649-0.984,1.361-2.084,2.105-3.298C340.07,150.014,348.3,157.365,354.667,166.161z"/>
<path style="fill:#FF9811;" d="M312.781,290.771l-25.341,19.802l-12.513,9.78C21.642,518.265,36.724,506.779,33.121,508.755
	c-21.54,11.77-42.629-10.608-27.079-32.912C222.571,165.177,206.733,187.604,210.58,182.978
	c29.98-36.294,81.164-44.692,110.756-16.671l4.094,3.874c3.223,3.109,5.35,4.873,8.021,7.979
	C360.007,208.591,350.992,260.917,312.781,290.771z"/>
<path style="fill:#FFA733;" d="M312.781,290.771l-156.81,122.526L37.644,505.76c-1.497,1.173-3.016,2.168-4.524,2.995
	c0.848-2.89,2.262-5.864,4.335-8.827l85.866-123.196l113.793-163.26c23.697-34.001,64.965-47.603,96.337-35.31
	C360.007,208.591,350.992,260.917,312.781,290.771z"/>
<g>
	<path style="fill:#CC7400;" d="M287.44,310.573l-12.513,9.78l-35.32-33.53c-3.152-2.984-3.278-7.958-0.293-11.1
		c2.984-3.141,7.958-3.278,11.1-0.293L287.44,310.573z"/>
	<path style="fill:#CC7400;" d="M168.087,315.526c-1.539,1.623-3.613,2.44-5.696,2.44c-1.937,0-3.885-0.712-5.403-2.157
		l-23.718-22.503l9.089-13.037l25.446,24.147C170.946,307.41,171.071,312.374,168.087,315.526z"/>
	<path style="fill:#CC7400;" d="M147.762,419.716l-12.513,9.78l-21.288-20.21c-3.141-2.984-3.267-7.958-0.283-11.1
		c2.984-3.152,7.958-3.278,11.1-0.293L147.762,419.716z"/>
	<path style="fill:#CC7400;" d="M238.958,220.738c-1.539,1.623-3.623,2.45-5.696,2.45c-1.937,0-3.885-0.723-5.403-2.157
		l-26.608-25.257l4.45-6.388c1.55-2.22,3.173-4.356,4.88-6.409l28.084,26.66C241.816,212.623,241.942,217.597,238.958,220.738z"/>
	<path style="fill:#CC7400;" d="M57.959,456.314c-1.55,1.623-3.623,2.45-5.696,2.45c-1.948,0-3.885-0.723-5.414-2.157
		l-16.493-15.655l9.089-13.037l18.22,17.299C60.807,448.199,60.943,453.173,57.959,456.314z"/>
</g>
<g>
</g>
<g>
</g>
<g>
</g>
<g>
</g>
<g>
</g>
<g>
</g>
<g>
</g>
<g>
</g>
<g>
</g>
<g>
</g>
<g>
</g>
<g>
</g>
<g>
</g>
<g>
</g>
<g>
</g>
</svg>
