<svg height="512pt" viewBox="-73 0 512 512.00025" width="512pt" xmlns="http://www.w3.org/2000/svg"><path d="m193.75 12.082031c-5.003906-7.914062-13.226562-12.421875-21.980469-12.0624998-8.886719.3671878-16.847656 5.6640628-21.296875 14.1679688l-10.410156 19.90625c-4.519531 8.636719-4.710938 19.511719-.5 28.378906 3.484375 7.339844 9.328125 25.03125 9.328125 61.0625v15h68.957031v-15c0-60.640625-13.101562-94.082031-24.097656-111.453125zm0 0" fill="#d88955"/><path d="m217.847656 123.535156c0-60.644531-13.101562-94.082031-24.097656-111.453125-2.695312-4.265625-6.332031-7.527343-10.476562-9.585937v136.039062h34.574218zm0 0" fill="#ae6e3f"/><path d="m245.597656 512c-2.867187 0-5.746094-.125-8.632812-.375-23.589844-2.046875-45.0625-12.320312-60.460938-28.917969-15.765625-16.992187-23.429687-38.644531-21.582031-60.972656l19.640625-226.871094c1.761719-21.308593 12.15625-41.019531 29.261719-55.449219 18.886719-15.933593 44.339843-23.800781 69.8125-21.589843l10.601562.921875c25.570313 2.21875 49.027344 14.402344 64.359375 33.417968 13.90625 17.253907 20.058594 38.535157 17.320313 59.929688l-30.25 225.976562c-2.820313 22.039063-14.769531 41.851563-33.640625 55.703126-16.1875 11.886718-35.957032 18.226562-56.429688 18.226562zm0 0" fill="#f50000"/><path d="m120.949219 512c-20.472657 0-40.238281-6.335938-56.429688-18.226562-18.871093-13.851563-30.820312-33.664063-33.652343-55.789063l-30.226563-225.804687c-2.75-21.480469 3.402344-42.761719 17.3125-60.015626 15.328125-19.015624 38.785156-31.195312 64.355469-33.417968l10.605468-.921875c25.480469-2.210938 50.925782 5.65625 69.8125 21.589843 17.101563 14.429688 27.496094 34.140626 29.265626 55.507813l19.628906 226.753906c1.855468 22.386719-5.8125 44.039063-21.574219 61.03125-15.402344 16.597657-36.875 26.871094-60.460937 28.917969-2.886719.25-5.769532.375-8.636719.375zm0 0" fill="#ff3636"/><path d="m183.273438 507.988281c-41.570313 0-75.964844-32.515625-78.296876-74.023437l-13.710937-233.734375c-1.226563-21.785157 6.34375-42.480469 21.308594-58.308594 14.964843-15.828125 35.203125-24.546875 56.984375-24.546875h27.429687c21.78125 0 42.019531 8.71875 56.984375 24.546875s22.53125 36.523437 21.3125 58.269531l-13.71875 233.8125c-2.328125 41.46875-36.71875 73.984375-78.292968 73.984375zm0 0" fill="#ff5b5b"/><path d="m253.972656 141.921875c-14.964844-15.828125-35.199218-24.546875-56.984375-24.546875h-13.714843v390.613281c41.574218 0 75.964843-32.515625 78.292968-73.984375l13.71875-233.808594c1.222656-21.75-6.347656-42.445312-21.3125-58.273437zm0 0" fill="#ff3636"/></svg>